<?xml version="1.0" encoding="utf-8"?>
<!-- Generator: Adobe Illustrator 20.0.0, SVG Export Plug-In . SVG Version: 6.00 Build 0)  -->
<svg version="1.1" id="Layer_1" xmlns="http://www.w3.org/2000/svg" xmlns:xlink="http://www.w3.org/1999/xlink" x="0px" y="0px"
	 width="300px" height="300px" viewBox="0 0 300 300" enable-background="new 0 0 300 300" xml:space="preserve">
<path fill="#00613C" d="M151,290c-76.6,0-139-62.4-139-139S74.4,12,151,12s139,62.4,139,139S227.6,290,151,290z M151,21.7
	C79.6,21.7,21.7,79.6,21.7,151c0,71.4,57.9,129.3,129.3,129.3S280.3,222.4,280.3,151l0,0C280.3,79.6,222.4,21.7,151,21.7L151,21.7z
	 M151,31.1C84.8,31.1,31.1,84.8,31.1,151S84.8,270.9,151,270.9S270.9,217.2,270.9,151c0,0,0,0,0,0C270.9,84.8,217.2,31.1,151,31.1
	C151,31.1,151,31.1,151,31.1L151,31.1z M73.3,74c2.6,4.1,12.8,11.6,20,15.1l42.2,21.1c0.4,5.9,2.3,11.7,5.4,16.7l-51.5-24.4
	C80,98,72.6,87.3,73.3,74L73.3,74z M79.3,100.5l60.4,28.6c0.2,2.1,1.3,8,6.8,14.6l-60.2-24.5c-9.6-3.9-17.9-12.6-18.4-26.8
	C73.9,97.6,76.1,98.9,79.3,100.5L79.3,100.5z M219.2,174.9l19.7,8.1c0.1,0.6,0.1,1.2,0.1,1.8c0,1.2-0.2,2.4-0.5,3.6l-19.8-7
	c-0.7-1.3-1-2.8-0.8-4.3C218,176.3,218.5,175.5,219.2,174.9L219.2,174.9z M219,169.6c0.2-0.9,0.6-1.8,1.3-2.5l8.1,3.8
	c3.8,1.9,6.5,3.8,8.1,5.9c1,1.3,1.8,2.8,2.1,4.4l-19.2-7.8C218.9,172.3,218.7,170.9,219,169.6L219,169.6z M195.2,224.3l-21.9-1.4
	l0,0c-0.6-0.7-2.5-2.9-2.3-4.7c0.2-0.9,0.7-1.6,1.5-2l22.6,2.5c-0.3,0.7-0.5,1.4-0.5,2.1C194.6,221.9,194.8,223.1,195.2,224.3
	L195.2,224.3z M170.9,222.7l-31.7-2.1c0.8-3.4,4.2-7.7,7.9-7.3l23,2.5c-0.4,0.6-0.6,1.3-0.7,2C169.4,219.6,169.9,221.3,170.9,222.7
	L170.9,222.7z M149.2,211.5c0.5-2.7,4-7.6,7.6-7l19.3,3.2c-0.7,0.9-1,2-1,3.2c0.1,1.4,0.5,2.7,1.3,3.8L149.2,211.5z M216.6,180.7
	l-28.1-9.9c-1.1-2.3-1.4-4.1-0.9-5.6c0.3-1,1-1.9,2-2.4l27.7,11.4c-0.5,0.7-0.9,1.6-1,2.5C216.1,178,216.2,179.4,216.6,180.7
	L216.6,180.7z M215.3,189.1l-26.6-8c-0.9-1.6-1.9-4.1-1.5-5.9c0.2-1,0.8-1.9,1.7-2.5l27.3,9.6c-0.6,0.8-1,1.7-1.2,2.7
	C214.6,186.3,214.8,187.7,215.3,189.1L215.3,189.1z M213.7,197.2l-24.7-6c-0.8-0.8-2.6-3.1-2.3-5.3c0.2-1.3,1-2.5,2.1-3.1l25.1,7.5
	c-0.4,0.5-0.6,1.1-0.7,1.7C212.8,193.8,213,195.6,213.7,197.2L213.7,197.2z M210.8,204l-24.6-4.7l0.1-0.2c-0.6-0.5-2.3-2.3-2.3-4.1
	c0.1-1.3,0.7-2.4,1.7-3.2L211,198c-0.3,0.4-0.4,0.9-0.6,1.4C210.1,201,210.3,202.6,210.8,204L210.8,204z M181.3,203.6
	c0.1-1.3,0.8-2.5,1.9-3.2l22.6,4.3c-0.3,0.6-0.5,1.2-0.6,1.8c-0.2,1.6,0,3.2,0.6,4.7l-22-3.8l0.1-0.2
	C183.1,206.7,181.3,205.3,181.3,203.6L181.3,203.6z M186,164.4c-0.5,1.9-0.4,3.8,0.3,5.6l-33.5-11.8c-5.3-3.7-7.5-10.5-8.2-13.7
	l42.8,17.5C186.7,162.6,186.2,163.5,186,164.4L186,164.4z M186.7,171.8c-0.7,0.8-1.1,1.8-1.3,2.8c-0.2,1.9,0.1,3.9,0.9,5.7l-29.9-9
	c-6.2-4.9-8-10.2-8.6-13.1L186.7,171.8z M186.5,182.1c-0.9,1-1.5,2.3-1.6,3.6c-0.1,1.7,0.3,3.4,1.2,4.8l-24.9-6.1
	c-4.2-3.1-7.1-7.5-8.5-12.5L186.5,182.1z M183.7,191.4c-0.9,1-1.3,2.3-1.3,3.7c0,1.3,0.4,2.6,1.1,3.7l-15.2-2.9l-1.6-0.1
	c-5.4-3.8-6.7-8.2-7-10.3L183.7,191.4z M165.8,197.1l15.1,2.8c-1.7,2-1.7,4.8-0.2,6.9l-21.5-3.7
	C159.5,200.5,162.7,196.5,165.8,197.1z M179,215l0.1-0.2c-0.6-0.5-2.2-2.3-2.2-4c0-1.1,0.5-2,1.4-2.7l-0.1-0.1l23.9,4
	c-0.3,0.6-0.5,1.2-0.6,1.8c-0.2,1.3,0,2.5,0.4,3.7L179,215z M197.3,218.8l13.5,1.4l-4.5,4.7l-9-0.6c-0.6-1.1-0.9-2.3-0.8-3.5
	C196.4,220.1,196.7,219.4,197.3,218.8L197.3,218.8z M203.7,217.9c-0.5-1.1-0.8-2.3-0.6-3.5c0.1-0.7,0.5-1.4,1-1.9l12.1,2l-4.2,4.4
	L203.7,217.9z M207.8,211.4c-0.8-1.4-1.2-3-1.1-4.6c0.1-0.7,0.5-1.4,1.2-1.8l14.8,2.8l-5.1,5.3L207.8,211.4z M212.9,204.4
	c-0.5-1.1-1.2-3-0.9-4.4c0.1-0.6,0.5-1.1,1.1-1.5l14.9,3.6l-4.1,4.3L212.9,204.4z M215.9,197.7c-0.5-1.1-1.5-3.4-1.1-5.1
	c0.1-0.7,0.5-1.3,1.1-1.7l17.9,5.4l-4.5,4.7L215.9,197.7z M217.6,189.8c-0.8-1.3-1.2-2.9-1.1-4.5c0.2-1,0.8-1.9,1.6-2.5l20,7
	c0,0.1,0,0.2-0.1,0.3c-0.7,1.8-1.7,3.5-3,4.9L217.6,189.8z M217.3,169c-0.2,1.2-0.2,2.4,0.1,3.6l-28.1-11.5
	c-0.9-1.6-1.1-3.4-0.8-5.2c0.4-1.2,1.2-2.1,2.3-2.7l27.7,13.1C217.9,167.1,217.5,168.1,217.3,169L217.3,169z M187,155.2
	c-0.5,1.7-0.4,3.4,0.2,5.1L151,145.4c-6.8-6.4-8.8-12.6-9.3-15.5l47.1,22.3C187.9,153,187.3,154,187,155.2L187,155.2z M82.4,119
	l60.3,24.7c0.4,2.1,1.7,8.2,5.6,13l-63.7-22.3c-8.5-3-15.3-10.7-17.3-22.3C74.1,115.9,77.3,116.9,82.4,119L82.4,119z M70.6,131.1
	l75.4,26.5c0.7,4.7,2.9,9.1,6.2,12.5l-63.5-19.2C80.5,148.4,74,142.5,70.6,131.1z M83.4,151.1l67.5,20.3c0.9,4.5,3.1,8.7,6.3,12
	l-53.9-13.2C94.6,168.1,86.3,162.2,83.4,151.1L83.4,151.1z M104.4,172.1l53.6,13.1c0.4,4.1,2.4,7.8,5.5,10.6h-0.1l-32.4-5.7
	C117.1,187.6,109.4,184.6,104.4,172.1L104.4,172.1z M127.8,230.5c-0.4-3.9,5.9-8.4,10.3-8.1l25.8,1.5c-0.4,0.8-0.6,1.7-0.6,2.6
	c0,1.4,0.5,2.8,1.4,4L127.8,230.5L127.8,230.5z M166.9,230.5c-0.8-0.9-2-2.5-2-4c0-0.9,0.4-1.7,1.1-2.4l22.5,1.4
	c-0.3,0.7-0.5,1.4-0.5,2.2c0,1,0.2,1.9,0.6,2.8H166.9z M190.5,230.5c-0.6-0.8-0.9-1.8-0.9-2.8c0-0.8,0.3-1.5,0.8-2.2l14.4,0.9
	l-3.9,4H190.5z M217.4,230.5h-13.3l32.2-33.5c3.1-3.3,4.8-7.6,4.8-12.1c0.1-3.5-1-7-3.2-9.8c-2.4-2.8-5.4-5-8.8-6.5l-83-39.3
	c-5.6-5.8-8.5-13.7-8-21.8c7.1,5.8,10.8,9.2,16.9,12.2l77.6,38.2c17.6,8.7,22.8,31.8,9.4,46.2L217.4,230.5z"/>
</svg>
